<svg xmlns="http://www.w3.org/2000/svg" xmlns:xlink="http://www.w3.org/1999/xlink" width="300" zoomAndPan="magnify" viewBox="0 0 224.87999 74.999997" height="100" preserveAspectRatio="xMidYMid meet" version="1.0"><defs><g/><clipPath id="5b2d73516a"><path d="M 7.496094 7.675781 L 59.21875 7.675781 L 59.21875 67.644531 L 7.496094 67.644531 Z M 7.496094 7.675781 " clip-rule="nonzero"/></clipPath><clipPath id="a1d145b8d3"><path d="M 57.554688 51.828125 L 144.507812 51.828125 L 144.507812 70.566406 L 57.554688 70.566406 Z M 57.554688 51.828125 " clip-rule="nonzero"/></clipPath><clipPath id="ca23c31805"><path d="M 0.980469 0.828125 L 83.96875 0.828125 L 83.96875 16.734375 L 0.980469 16.734375 Z M 0.980469 0.828125 " clip-rule="nonzero"/></clipPath><clipPath id="1865aa6a98"><path d="M 80.292969 12.507812 L 87.15625 12.507812 L 87.15625 19.566406 L 80.292969 19.566406 Z M 80.292969 12.507812 " clip-rule="nonzero"/></clipPath><clipPath id="13249dbe67"><rect x="0" width="88" y="0" height="20"/></clipPath></defs><g fill="#000000" fill-opacity="1"><g transform="translate(59.311088, 43.951949)"><g><path d="M 7.5 0 L 0.5625 0 L 1.140625 -2.734375 L 6.59375 -2.734375 C 6.894531 -2.734375 7.097656 -2.78125 7.203125 -2.875 C 7.316406 -2.976562 7.398438 -3.171875 7.453125 -3.453125 L 9.03125 -10.890625 L 6.671875 -10.890625 L 7.234375 -13.53125 L 12.625 -13.53125 L 10.265625 -2.359375 C 10.097656 -1.554688 9.804688 -0.960938 9.390625 -0.578125 C 8.972656 -0.191406 8.34375 0 7.5 0 Z M 7.5 0 "/></g></g></g><g fill="#000000" fill-opacity="1"><g transform="translate(70.200979, 43.951949)"><g><path d="M 11.578125 0 L 2.765625 0 C 2.253906 0 1.882812 -0.09375 1.65625 -0.28125 C 1.425781 -0.476562 1.3125 -0.769531 1.3125 -1.15625 C 1.3125 -1.34375 1.347656 -1.59375 1.421875 -1.90625 L 1.921875 -4.296875 C 2.078125 -5.054688 2.300781 -5.566406 2.59375 -5.828125 C 2.882812 -6.097656 3.351562 -6.234375 4 -6.234375 L 9.140625 -6.234375 L 8.765625 -4.515625 L 5.09375 -4.515625 C 4.90625 -4.515625 4.769531 -4.476562 4.6875 -4.40625 C 4.613281 -4.34375 4.554688 -4.207031 4.515625 -4 L 4.296875 -2.9375 C 4.285156 -2.882812 4.273438 -2.832031 4.265625 -2.78125 C 4.253906 -2.738281 4.25 -2.695312 4.25 -2.65625 C 4.25 -2.476562 4.378906 -2.390625 4.640625 -2.390625 L 9.3125 -2.390625 L 10.375 -7.359375 C 10.382812 -7.398438 10.390625 -7.4375 10.390625 -7.46875 C 10.390625 -7.507812 10.390625 -7.546875 10.390625 -7.578125 C 10.390625 -7.796875 10.226562 -7.90625 9.90625 -7.90625 L 3.0625 -7.90625 L 3.515625 -10.109375 L 11.796875 -10.109375 C 12.378906 -10.109375 12.789062 -10.007812 13.03125 -9.8125 C 13.269531 -9.625 13.390625 -9.320312 13.390625 -8.90625 C 13.390625 -8.800781 13.378906 -8.679688 13.359375 -8.546875 C 13.335938 -8.421875 13.316406 -8.285156 13.296875 -8.140625 Z M 11.578125 0 "/></g></g></g><g fill="#000000" fill-opacity="1"><g transform="translate(82.789296, 43.951949)"><g><path d="M 11.953125 0 L 9.171875 0 L 10.671875 -7.140625 C 10.679688 -7.191406 10.691406 -7.234375 10.703125 -7.265625 C 10.710938 -7.304688 10.71875 -7.34375 10.71875 -7.375 C 10.71875 -7.582031 10.550781 -7.6875 10.21875 -7.6875 L 6.03125 -7.6875 C 5.832031 -7.6875 5.6875 -7.648438 5.59375 -7.578125 C 5.5 -7.503906 5.425781 -7.359375 5.375 -7.140625 L 3.875 0 L 1.078125 0 L 4.109375 -14.34375 L 6.921875 -14.34375 L 5.78125 -9.015625 C 6.28125 -9.742188 6.9375 -10.109375 7.75 -10.109375 L 12.1875 -10.109375 C 12.738281 -10.109375 13.132812 -10.015625 13.375 -9.828125 C 13.625 -9.640625 13.75 -9.328125 13.75 -8.890625 C 13.75 -8.785156 13.738281 -8.671875 13.71875 -8.546875 C 13.707031 -8.421875 13.691406 -8.285156 13.671875 -8.140625 Z M 11.953125 0 "/></g></g></g><g fill="#000000" fill-opacity="1"><g transform="translate(95.797215, 43.951949)"><g><path d="M 3.921875 0 L 1.125 0 L 3.25 -10.109375 L 6.0625 -10.109375 Z M 6.328125 -11.3125 L 3.515625 -11.3125 L 4.15625 -14.34375 L 6.96875 -14.34375 Z M 6.328125 -11.3125 "/></g></g></g><g fill="#000000" fill-opacity="1"><g transform="translate(100.85252, 43.951949)"><g><path d="M 11.46875 0 L 2.875 0 C 2.3125 0 1.90625 -0.09375 1.65625 -0.28125 C 1.414062 -0.476562 1.296875 -0.785156 1.296875 -1.203125 C 1.296875 -1.304688 1.304688 -1.425781 1.328125 -1.5625 C 1.347656 -1.695312 1.375 -1.835938 1.40625 -1.984375 L 2.703125 -8.140625 C 2.960938 -9.453125 3.734375 -10.109375 5.015625 -10.109375 L 9.796875 -10.109375 L 9.265625 -7.6875 L 5.9375 -7.6875 C 5.71875 -7.6875 5.566406 -7.648438 5.484375 -7.578125 C 5.398438 -7.503906 5.332031 -7.359375 5.28125 -7.140625 L 4.421875 -3.03125 C 4.398438 -2.976562 4.382812 -2.925781 4.375 -2.875 C 4.375 -2.832031 4.375 -2.800781 4.375 -2.78125 C 4.375 -2.582031 4.53125 -2.484375 4.84375 -2.484375 L 9.171875 -2.484375 L 11.6875 -14.34375 L 14.515625 -14.34375 Z M 11.46875 0 "/></g></g></g><g fill="#1800ad" fill-opacity="1"><g transform="translate(113.411121, 43.951949)"><g><path d="M 9.109375 -10.875 L 6.8125 0 L 3.78125 0 L 6.078125 -10.875 L 2.796875 -10.875 L 3.359375 -13.53125 L 12.96875 -13.53125 L 12.40625 -10.875 Z M 9.109375 -10.875 "/></g></g></g><g fill="#1800ad" fill-opacity="1"><g transform="translate(124.061237, 43.951949)"><g><path d="M 11.953125 0 L 9.171875 0 L 10.671875 -7.140625 C 10.679688 -7.191406 10.691406 -7.234375 10.703125 -7.265625 C 10.710938 -7.304688 10.71875 -7.34375 10.71875 -7.375 C 10.71875 -7.582031 10.550781 -7.6875 10.21875 -7.6875 L 6.03125 -7.6875 C 5.832031 -7.6875 5.6875 -7.648438 5.59375 -7.578125 C 5.5 -7.503906 5.425781 -7.359375 5.375 -7.140625 L 3.875 0 L 1.078125 0 L 4.109375 -14.34375 L 6.921875 -14.34375 L 5.78125 -9.015625 C 6.28125 -9.742188 6.9375 -10.109375 7.75 -10.109375 L 12.1875 -10.109375 C 12.738281 -10.109375 13.132812 -10.015625 13.375 -9.828125 C 13.625 -9.640625 13.75 -9.328125 13.75 -8.890625 C 13.75 -8.785156 13.738281 -8.671875 13.71875 -8.546875 C 13.707031 -8.421875 13.691406 -8.285156 13.671875 -8.140625 Z M 11.953125 0 "/></g></g></g><g fill="#1800ad" fill-opacity="1"><g transform="translate(137.069156, 43.951949)"><g><path d="M 10.984375 0 L 2.796875 0 C 2.222656 0 1.8125 -0.09375 1.5625 -0.28125 C 1.320312 -0.476562 1.203125 -0.785156 1.203125 -1.203125 C 1.203125 -1.304688 1.210938 -1.425781 1.234375 -1.5625 C 1.253906 -1.695312 1.273438 -1.835938 1.296875 -1.984375 L 2.59375 -8.140625 C 2.738281 -8.816406 2.984375 -9.3125 3.328125 -9.625 C 3.671875 -9.945312 4.207031 -10.109375 4.9375 -10.109375 L 11.765625 -10.109375 C 12.273438 -10.109375 12.640625 -10.007812 12.859375 -9.8125 C 13.078125 -9.625 13.1875 -9.335938 13.1875 -8.953125 C 13.1875 -8.847656 13.179688 -8.734375 13.171875 -8.609375 C 13.160156 -8.492188 13.140625 -8.363281 13.109375 -8.21875 L 12.265625 -4.234375 L 5.53125 -4.234375 L 5.875 -5.921875 L 9.953125 -5.921875 L 10.25 -7.28125 C 10.257812 -7.332031 10.265625 -7.375 10.265625 -7.40625 C 10.265625 -7.445312 10.265625 -7.488281 10.265625 -7.53125 C 10.265625 -7.71875 10.128906 -7.8125 9.859375 -7.8125 L 5.828125 -7.8125 C 5.609375 -7.8125 5.457031 -7.773438 5.375 -7.703125 C 5.289062 -7.628906 5.222656 -7.476562 5.171875 -7.25 L 4.234375 -2.890625 C 4.222656 -2.835938 4.210938 -2.785156 4.203125 -2.734375 C 4.203125 -2.679688 4.203125 -2.632812 4.203125 -2.59375 C 4.203125 -2.394531 4.351562 -2.296875 4.65625 -2.296875 L 11.46875 -2.296875 Z M 10.984375 0 "/></g></g></g><g fill="#000000" fill-opacity="1"><g transform="translate(149.427055, 43.951949)"><g><path d="M 10.953125 0 L 3.296875 0 C 2.617188 0 2.132812 -0.117188 1.84375 -0.359375 C 1.550781 -0.609375 1.40625 -0.984375 1.40625 -1.484375 C 1.40625 -1.609375 1.410156 -1.738281 1.421875 -1.875 C 1.429688 -2.019531 1.457031 -2.179688 1.5 -2.359375 L 3.359375 -11.171875 C 3.535156 -11.972656 3.832031 -12.566406 4.25 -12.953125 C 4.664062 -13.335938 5.300781 -13.53125 6.15625 -13.53125 L 13.765625 -13.53125 L 13.203125 -10.828125 L 7.09375 -10.828125 C 6.769531 -10.828125 6.550781 -10.773438 6.4375 -10.671875 C 6.332031 -10.578125 6.242188 -10.378906 6.171875 -10.078125 L 4.75 -3.484375 C 4.738281 -3.421875 4.726562 -3.363281 4.71875 -3.3125 C 4.71875 -3.257812 4.71875 -3.207031 4.71875 -3.15625 C 4.71875 -3.007812 4.765625 -2.898438 4.859375 -2.828125 C 4.953125 -2.765625 5.125 -2.734375 5.375 -2.734375 L 11.53125 -2.734375 Z M 10.953125 0 "/></g></g></g><g fill="#000000" fill-opacity="1"><g transform="translate(161.13618, 43.951949)"><g><path d="M 9.75 0 L 2.875 0 C 2.3125 0 1.90625 -0.09375 1.65625 -0.28125 C 1.414062 -0.476562 1.296875 -0.785156 1.296875 -1.203125 C 1.296875 -1.304688 1.304688 -1.425781 1.328125 -1.5625 C 1.347656 -1.695312 1.375 -1.835938 1.40625 -1.984375 L 2.703125 -8.140625 C 2.847656 -8.816406 3.085938 -9.3125 3.421875 -9.625 C 3.765625 -9.945312 4.296875 -10.109375 5.015625 -10.109375 L 11.890625 -10.109375 C 12.472656 -10.109375 12.882812 -10.007812 13.125 -9.8125 C 13.363281 -9.625 13.484375 -9.320312 13.484375 -8.90625 C 13.484375 -8.800781 13.472656 -8.679688 13.453125 -8.546875 C 13.429688 -8.421875 13.410156 -8.285156 13.390625 -8.140625 L 12.09375 -1.984375 C 11.945312 -1.296875 11.703125 -0.789062 11.359375 -0.46875 C 11.023438 -0.15625 10.488281 0 9.75 0 Z M 9.515625 -3.015625 L 10.375 -7.140625 C 10.382812 -7.191406 10.390625 -7.234375 10.390625 -7.265625 C 10.398438 -7.304688 10.40625 -7.34375 10.40625 -7.375 C 10.40625 -7.582031 10.226562 -7.6875 9.875 -7.6875 L 5.921875 -7.6875 C 5.703125 -7.6875 5.546875 -7.648438 5.453125 -7.578125 C 5.367188 -7.503906 5.3125 -7.359375 5.28125 -7.140625 L 4.421875 -3.015625 C 4.398438 -2.960938 4.382812 -2.914062 4.375 -2.875 C 4.375 -2.832031 4.375 -2.796875 4.375 -2.765625 C 4.375 -2.578125 4.519531 -2.484375 4.8125 -2.484375 L 8.765625 -2.484375 C 9.015625 -2.484375 9.191406 -2.519531 9.296875 -2.59375 C 9.398438 -2.675781 9.472656 -2.816406 9.515625 -3.015625 Z M 9.515625 -3.015625 "/></g></g></g><g fill="#000000" fill-opacity="1"><g transform="translate(173.784433, 43.951949)"><g><path d="M 11.46875 0 L 2.875 0 C 2.3125 0 1.90625 -0.09375 1.65625 -0.28125 C 1.414062 -0.476562 1.296875 -0.785156 1.296875 -1.203125 C 1.296875 -1.304688 1.304688 -1.425781 1.328125 -1.5625 C 1.347656 -1.695312 1.375 -1.835938 1.40625 -1.984375 L 2.703125 -8.140625 C 2.960938 -9.453125 3.734375 -10.109375 5.015625 -10.109375 L 9.796875 -10.109375 L 9.265625 -7.6875 L 5.9375 -7.6875 C 5.71875 -7.6875 5.566406 -7.648438 5.484375 -7.578125 C 5.398438 -7.503906 5.332031 -7.359375 5.28125 -7.140625 L 4.421875 -3.03125 C 4.398438 -2.976562 4.382812 -2.925781 4.375 -2.875 C 4.375 -2.832031 4.375 -2.800781 4.375 -2.78125 C 4.375 -2.582031 4.53125 -2.484375 4.84375 -2.484375 L 9.171875 -2.484375 L 11.6875 -14.34375 L 14.515625 -14.34375 Z M 11.46875 0 "/></g></g></g><g fill="#000000" fill-opacity="1"><g transform="translate(186.332785, 43.951949)"><g><path d="M 10.984375 0 L 2.796875 0 C 2.222656 0 1.8125 -0.09375 1.5625 -0.28125 C 1.320312 -0.476562 1.203125 -0.785156 1.203125 -1.203125 C 1.203125 -1.304688 1.210938 -1.425781 1.234375 -1.5625 C 1.253906 -1.695312 1.273438 -1.835938 1.296875 -1.984375 L 2.59375 -8.140625 C 2.738281 -8.816406 2.984375 -9.3125 3.328125 -9.625 C 3.671875 -9.945312 4.207031 -10.109375 4.9375 -10.109375 L 11.765625 -10.109375 C 12.273438 -10.109375 12.640625 -10.007812 12.859375 -9.8125 C 13.078125 -9.625 13.1875 -9.335938 13.1875 -8.953125 C 13.1875 -8.847656 13.179688 -8.734375 13.171875 -8.609375 C 13.160156 -8.492188 13.140625 -8.363281 13.109375 -8.21875 L 12.265625 -4.234375 L 5.53125 -4.234375 L 5.875 -5.921875 L 9.953125 -5.921875 L 10.25 -7.28125 C 10.257812 -7.332031 10.265625 -7.375 10.265625 -7.40625 C 10.265625 -7.445312 10.265625 -7.488281 10.265625 -7.53125 C 10.265625 -7.71875 10.128906 -7.8125 9.859375 -7.8125 L 5.828125 -7.8125 C 5.609375 -7.8125 5.457031 -7.773438 5.375 -7.703125 C 5.289062 -7.628906 5.222656 -7.476562 5.171875 -7.25 L 4.234375 -2.890625 C 4.222656 -2.835938 4.210938 -2.785156 4.203125 -2.734375 C 4.203125 -2.679688 4.203125 -2.632812 4.203125 -2.59375 C 4.203125 -2.394531 4.351562 -2.296875 4.65625 -2.296875 L 11.46875 -2.296875 Z M 10.984375 0 "/></g></g></g><g fill="#000000" fill-opacity="1"><g transform="translate(198.681316, 43.951949)"><g><path d="M 3.8125 0 L 1.015625 0 L 3.15625 -10.109375 L 5.875 -10.109375 L 5.640625 -9.015625 C 6.117188 -9.742188 6.773438 -10.109375 7.609375 -10.109375 L 10.546875 -10.109375 L 10.03125 -7.6875 L 6 -7.6875 C 5.800781 -7.6875 5.648438 -7.648438 5.546875 -7.578125 C 5.441406 -7.503906 5.363281 -7.359375 5.3125 -7.140625 Z M 3.8125 0 "/></g></g></g><g clip-path="url(#5b2d73516a)"><path fill="#000000" d="M 33.398438 7.675781 L 7.503906 22.628906 L 7.503906 52.53125 L 33.398438 67.480469 L 59.292969 52.527344 L 59.292969 22.628906 Z M 9.183594 51.320312 L 9.183594 42.933594 L 13.574219 45.472656 L 13.574219 48.789062 L 27.703125 56.953125 L 27.699219 40.636719 L 25.390625 39.300781 L 25.390625 34.230469 L 32.085938 38.09375 L 32.089844 64.546875 Z M 32.832031 24.070312 L 30.0625 24.070312 L 30.0625 21.300781 L 32.832031 21.300781 Z M 32.832031 20.171875 L 30.0625 20.171875 L 30.0625 17.40625 L 32.832031 17.40625 Z M 33.394531 13.679688 L 13.632812 25.101562 L 10.550781 23.320312 L 33.390625 10.117188 L 33.398438 10.117188 L 56.242188 23.3125 L 53.160156 25.09375 Z M 36.726562 17.40625 L 36.726562 20.171875 L 33.960938 20.171875 L 33.960938 17.40625 Z M 33.960938 21.300781 L 36.726562 21.300781 L 36.726562 24.070312 L 33.960938 24.070312 Z M 34.730469 64.546875 L 34.71875 56.46875 L 39.09375 53.960938 L 39.105469 56.957031 L 53.226562 48.808594 L 53.226562 43.367188 L 34.730469 54.035156 L 34.71875 38.121094 L 57.601562 24.910156 L 57.601562 32.625 L 53.226562 35.15625 L 53.226562 32.492188 L 39.105469 40.648438 L 39.105469 46.460938 L 57.601562 35.816406 L 57.613281 51.339844 Z M 34.730469 64.546875 " fill-opacity="1" fill-rule="nonzero"/></g><g clip-path="url(#a1d145b8d3)"><g transform="matrix(1, 0, 0, 1, 57, 51)"><g clip-path="url(#13249dbe67)"><g clip-path="url(#ca23c31805)"><path fill="#000000" d="M 83.390625 16.632812 L 83.933594 15.84375 L 66.484375 0.828125 L 0.980469 0.828125 L 0.980469 1.789062 L 66.183594 1.789062 L 83.390625 16.632812 " fill-opacity="1" fill-rule="nonzero"/></g><g clip-path="url(#1865aa6a98)"><path fill="#000000" d="M 83.792969 19.035156 C 85.359375 19.035156 86.632812 17.746094 86.632812 16.15625 C 86.632812 14.566406 85.359375 13.273438 83.792969 13.273438 C 82.222656 13.273438 80.953125 14.566406 80.953125 16.15625 C 80.953125 17.746094 82.222656 19.035156 83.792969 19.035156 Z M 83.792969 12.746094 C 85.648438 12.746094 87.15625 14.269531 87.15625 16.15625 C 87.15625 18.039062 85.648438 19.566406 83.792969 19.566406 C 81.933594 19.566406 80.429688 18.039062 80.429688 16.15625 C 80.429688 14.269531 81.933594 12.746094 83.792969 12.746094 " fill-opacity="1" fill-rule="nonzero"/></g><path fill="#000000" d="M 81.746094 16.15625 C 81.746094 15.007812 82.660156 14.078125 83.792969 14.078125 C 84.921875 14.078125 85.839844 15.007812 85.839844 16.15625 C 85.839844 17.300781 84.921875 18.230469 83.792969 18.230469 C 82.660156 18.230469 81.746094 17.300781 81.746094 16.15625 " fill-opacity="1" fill-rule="nonzero"/></g></g></g></svg>